<svg width="245" height="164" viewBox="0 0 245 164" fill="none" xmlns="http://www.w3.org/2000/svg">
<path d="M82.0721 75.292L115.424 41.9677C123.858 50.4615 129.068 62.155 129.068 75.0647C129.068 101.019 108.01 122.059 82.034 122.059C56.0579 122.059 35 101.019 35 75.0647C35 62.1357 40.2258 50.4264 48.6816 41.9296L82.0721 75.292Z" fill="white"/>
<path d="M176.102 35C189.191 35 201.03 40.3429 209.557 48.9638L176.253 82.2398L209.312 115.271C200.804 123.748 189.066 128.989 176.102 128.989C150.126 128.989 129.068 107.949 129.068 81.9944C129.068 56.0402 150.126 35 176.102 35Z" fill="white"/>
</svg>
